<?xml version="1.0" encoding="UTF-8" standalone="no"?>
<!-- Created with Inkscape (http://www.inkscape.org/) -->

<svg
   width="308mm"
   height="249mm"
   viewBox="0 0 308 249"
   version="1.1"
   id="svg1"
   xml:space="preserve"
   inkscape:version="1.4 (86a8ad7, 2024-10-11)"
   sodipodi:docname="lofi_caring for emotion.svg"
   inkscape:export-filename="lofi_caring for emotion.png"
   inkscape:export-xdpi="96"
   inkscape:export-ydpi="96"
   xmlns:inkscape="http://www.inkscape.org/namespaces/inkscape"
   xmlns:sodipodi="http://sodipodi.sourceforge.net/DTD/sodipodi-0.dtd"
   xmlns="http://www.w3.org/2000/svg"
   xmlns:svg="http://www.w3.org/2000/svg"><sodipodi:namedview
     id="namedview1"
     pagecolor="#ffffff"
     bordercolor="#666666"
     borderopacity="1.0"
     inkscape:showpageshadow="2"
     inkscape:pageopacity="0.0"
     inkscape:pagecheckerboard="0"
     inkscape:deskcolor="#d1d1d1"
     inkscape:document-units="mm"
     inkscape:zoom="0.50835204"
     inkscape:cx="118.02844"
     inkscape:cy="455.39308"
     inkscape:window-width="1920"
     inkscape:window-height="1009"
     inkscape:window-x="1912"
     inkscape:window-y="-8"
     inkscape:window-maximized="1"
     inkscape:current-layer="layer1" /><defs
     id="defs1" /><g
     inkscape:label="Layer 1"
     inkscape:groupmode="layer"
     id="layer1"><rect
       style="fill:#f9f9f9;stroke:#f9f9f9;stroke-width:1.06008"
       id="rect2"
       width="146.29657"
       height="41.463333"
       x="10.844021"
       y="16.854158"
       ry="2.2412615" /><rect
       style="fill:#f9f9f9;stroke:#f9f9f9;stroke-width:1.50027"
       id="rect2-5"
       width="145.87888"
       height="83.285324"
       x="10.62419"
       y="80.124039"
       ry="4.5019093" /><path
       d="m 82.538039,52.622097 a 10.871484,11.401864 0 1 1 0,-22.803722 10.871484,11.401864 0 0 1 0,22.803722 z m 0,-2.280385 a 8.6971823,9.1214857 0 1 0 0,-18.242952 8.6971823,9.1214857 0 0 0 0,18.242952 z M 78.733019,40.08005 a 1.6307222,1.7102792 0 1 1 0,-3.420558 1.6307222,1.7102792 0 0 1 0,3.420558 z m 7.610062,0 a 1.6307222,1.7102792 0 1 1 0,-3.420558 1.6307222,1.7102792 0 0 1 0,3.420558 z m -7.066485,4.560718 h 6.522893 a 1.0871547,1.140193 0 0 1 0,2.280386 h -6.522893 a 1.0871547,1.140193 0 0 1 0,-2.280386 z"
       id="path1"
       style="fill:#efb700;fill-opacity:0.397985;stroke-width:1.11335" /><path
       d="m 33.522714,52.918095 a 10.871484,11.401864 0 1 1 0,-22.803723 10.871484,11.401864 0 0 1 0,22.803723 z m 0,-2.280386 a 8.6971823,9.1214857 0 1 0 0,-18.242951 8.6971823,9.1214857 0 0 0 0,18.242951 z M 29.717696,40.376047 a 1.6307222,1.7102792 0 1 1 0,-3.420558 1.6307222,1.7102792 0 0 1 0,3.420558 z m 7.610061,0 a 1.6307222,1.7102792 0 1 1 0,-3.420558 1.6307222,1.7102792 0 0 1 0,3.420558 z m 2.348238,3.420559 a 6.5228864,6.8411142 0 0 1 -12.306536,0 z"
       id="path1-0"
       style="fill:#008450;fill-opacity:1;stroke-width:1.11335" /><path
       d="m 131.08931,52.146371 a 10.871484,11.401864 0 1 1 0,-22.803723 10.871484,11.401864 0 0 1 0,22.803723 z m 0,-2.280385 a 8.6971823,9.1214857 0 1 0 0,-18.242954 8.6971823,9.1214857 0 0 0 0,18.242954 z M 127.2843,39.604309 a 1.6307226,1.7102796 0 1 1 0,-3.420558 1.6307226,1.7102796 0 0 1 0,3.420558 z m 7.61006,0 a 1.6307226,1.7102796 0 1 1 0,-3.420558 1.6307226,1.7102796 0 0 1 0,3.420558 z m 2.34823,6.841116 h -12.30652 a 6.5228864,6.8411142 0 0 1 12.30652,0 z"
       id="path1-02"
       style="fill:#b81d13;fill-opacity:0.367758;stroke-width:1.11335" /><text
       xml:space="preserve"
       style="font-size:4.16993px;line-height:1.25;font-family:sans-serif;stroke-width:0.208496"
       x="12.208215"
       y="20.460451"
       id="text2"
       transform="scale(0.97646455,1.0241027)"><tspan
         sodipodi:role="line"
         id="tspan2"
         style="stroke-width:0.208496"
         x="12.208215"
         y="20.460451">Mood state</tspan></text><text
       xml:space="preserve"
       style="font-size:4.16993px;line-height:1.25;font-family:sans-serif;stroke-width:0.208496"
       x="56.174088"
       y="64.996483"
       id="text3"
       transform="scale(0.97646456,1.0241027)"><tspan
         sodipodi:role="line"
         id="tspan3"
         style="stroke-width:0.208496"
         x="56.174088"
         y="64.996483">-&gt; Shown simply with three emojis</tspan><tspan
         sodipodi:role="line"
         style="stroke-width:0.208496"
         x="56.174088"
         y="70.208893"
         id="tspan11">-&gt; Icons are displayed with adjusted transparency</tspan><tspan
         sodipodi:role="line"
         style="stroke-width:0.208496"
         x="56.174088"
         y="75.42131"
         id="tspan10" /></text><text
       xml:space="preserve"
       style="font-size:4.16993px;line-height:1.25;font-family:sans-serif;stroke-width:0.208496"
       x="11.780999"
       y="83.044075"
       id="text4"
       transform="scale(0.97646455,1.0241027)"><tspan
         sodipodi:role="line"
         id="tspan4"
         style="stroke-width:0.208496"
         x="11.780999"
         y="83.044075">History of condition</tspan></text><rect
       style="fill:#ffffff;fill-opacity:0.397985;stroke:#000000;stroke-width:0.443785"
       id="rect4"
       width="38.466106"
       height="9.8636389"
       x="12.928263"
       y="90.500877"
       ry="0" /><rect
       style="fill:#ffffff;fill-opacity:0.397985;stroke:#000000;stroke-width:0.583105"
       id="rect4-0"
       width="66.792114"
       height="9.8070831"
       x="51.063538"
       y="90.52916"
       ry="0" /><rect
       style="fill:#ffffff;fill-opacity:0.397985;stroke:#000000;stroke-width:0.475565"
       id="rect4-8"
       width="38.455887"
       height="11.330134"
       x="12.883368"
       y="100.36528"
       ry="0" /><rect
       style="fill:#ffffff;fill-opacity:0.397985;stroke:#000000;stroke-width:0.624864"
       id="rect4-0-9"
       width="66.774368"
       height="11.265173"
       x="51.209843"
       y="100.39776"
       ry="0" /><rect
       style="fill:#ffffff;fill-opacity:0.397985;stroke:#000000;stroke-width:0.443785"
       id="rect4-6"
       width="38.466106"
       height="9.8636389"
       x="118.20617"
       y="90.500877"
       ry="0" /><rect
       style="fill:#ffffff;fill-opacity:0.397985;stroke:#000000;stroke-width:0.475565"
       id="rect4-8-6"
       width="38.455887"
       height="11.330134"
       x="118.14091"
       y="100.36528"
       ry="0" /><text
       xml:space="preserve"
       style="font-size:3.47734px;line-height:1.25;font-family:sans-serif;stroke-width:0.173867"
       x="21.011654"
       y="97.10006"
       id="text5"
       transform="scale(0.99935884,1.0006416)"><tspan
         sodipodi:role="line"
         id="tspan5"
         style="stroke-width:0.173867"
         x="21.011654"
         y="97.10006">Date / Time</tspan></text><text
       xml:space="preserve"
       style="font-size:3.47734px;line-height:1.25;font-family:sans-serif;stroke-width:0.173867"
       x="17.580042"
       y="107.33643"
       id="text6"
       transform="scale(0.99935884,1.0006416)"><tspan
         sodipodi:role="line"
         id="tspan6"
         style="stroke-width:0.173867"
         x="17.580042"
         y="107.33643">29 Nov 13:50:30</tspan></text><text
       xml:space="preserve"
       style="font-size:3.47734px;line-height:1.25;font-family:sans-serif;stroke-width:0.173867"
       x="76.394234"
       y="96.813484"
       id="text7"
       transform="scale(0.99935884,1.0006416)"><tspan
         sodipodi:role="line"
         id="tspan7"
         style="stroke-width:0.173867"
         x="76.394234"
         y="96.813484">Mood</tspan></text><text
       xml:space="preserve"
       style="font-size:3.47734px;line-height:1.25;font-family:sans-serif;stroke-width:0.173867"
       x="76.25827"
       y="106.93954"
       id="text8"
       transform="scale(0.99935884,1.0006416)"><tspan
         sodipodi:role="line"
         id="tspan8"
         style="stroke-width:0.173867"
         x="76.25827"
         y="106.93954">Joy</tspan></text><rect
       style="fill:#ffffff;fill-opacity:0.397985;stroke:#000000;stroke-width:0.475565"
       id="rect4-8-9"
       width="38.455887"
       height="11.330134"
       x="12.704501"
       y="111.68586"
       ry="0" /><rect
       style="fill:#ffffff;fill-opacity:0.397985;stroke:#000000;stroke-width:0.624864"
       id="rect4-0-9-6"
       width="66.774368"
       height="11.265173"
       x="51.030991"
       y="111.71835"
       ry="0" /><rect
       style="fill:#ffffff;fill-opacity:0.397985;stroke:#000000;stroke-width:0.475565"
       id="rect4-8-6-3"
       width="38.455887"
       height="11.330134"
       x="117.79101"
       y="111.68586"
       ry="0" /><text
       xml:space="preserve"
       style="font-size:3.47734px;line-height:1.25;font-family:sans-serif;stroke-width:0.173867"
       x="17.401178"
       y="118.73592"
       id="text6-7"
       transform="scale(0.99935884,1.0006416)"><tspan
         sodipodi:role="line"
         id="tspan6-8"
         style="stroke-width:0.173867"
         x="17.401178"
         y="118.73592">29 Nov 12:40:30</tspan></text><text
       xml:space="preserve"
       style="font-size:3.47734px;line-height:1.25;font-family:sans-serif;stroke-width:0.173867"
       x="76.079414"
       y="118.6868"
       id="text8-8"
       transform="scale(0.99935884,1.0006416)"><tspan
         sodipodi:role="line"
         id="tspan8-2"
         style="stroke-width:0.173867"
         x="76.079414"
         y="118.6868">Normal</tspan></text><rect
       style="fill:#ffffff;fill-opacity:0.397985;stroke:#000000;stroke-width:0.475565"
       id="rect4-8-9-5"
       width="38.455887"
       height="11.330134"
       x="12.581607"
       y="123.03792"
       ry="0" /><rect
       style="fill:#ffffff;fill-opacity:0.397985;stroke:#000000;stroke-width:0.624864"
       id="rect4-0-9-6-9"
       width="66.774368"
       height="11.265173"
       x="50.908127"
       y="123.0704"
       ry="0" /><rect
       style="fill:#ffffff;fill-opacity:0.397985;stroke:#000000;stroke-width:0.475565"
       id="rect4-8-6-3-8"
       width="38.455887"
       height="11.330134"
       x="117.83916"
       y="123.03792"
       ry="0" /><text
       xml:space="preserve"
       style="font-size:3.47734px;line-height:1.25;font-family:sans-serif;stroke-width:0.173867"
       x="17.278288"
       y="130.17995"
       id="text6-7-4"
       transform="scale(0.99935884,1.0006416)"><tspan
         sodipodi:role="line"
         id="tspan6-8-0"
         style="stroke-width:0.173867"
         x="17.278288"
         y="130.17995">29 Nov 12:30:30</tspan></text><text
       xml:space="preserve"
       style="font-size:3.47734px;line-height:1.25;font-family:sans-serif;stroke-width:0.173867"
       x="75.956558"
       y="130.13078"
       id="text8-8-7"
       transform="scale(0.99935884,1.0006416)"><tspan
         sodipodi:role="line"
         style="stroke-width:0.173867"
         x="75.956558"
         y="130.13078"
         id="tspan9">Anger</tspan></text><text
       xml:space="preserve"
       style="font-size:3.47734px;line-height:1.25;font-family:sans-serif;stroke-width:0.173867"
       x="127.52265"
       y="129.63124"
       id="text12"
       transform="scale(0.99935884,1.0006416)"><tspan
         sodipodi:role="line"
         id="tspan12"
         style="fill:#666666;stroke-width:0.173867"
         x="127.52265"
         y="129.63124">view detail</tspan></text><path
       style="fill:#666666;stroke:#666666;stroke-width:0.269343px;stroke-linecap:butt;stroke-linejoin:miter;stroke-opacity:1"
       d="m 124.78522,130.62758 23.92154,0.0491"
       id="path12"
       sodipodi:nodetypes="cc" /><rect
       style="fill:#ffffff;fill-opacity:0.397985;stroke:#000000;stroke-width:0.475565"
       id="rect4-8-9-5-6"
       width="38.455887"
       height="11.330134"
       x="12.480508"
       y="134.26346"
       ry="0" /><rect
       style="fill:#ffffff;fill-opacity:0.397985;stroke:#000000;stroke-width:0.624864"
       id="rect4-0-9-6-9-5"
       width="66.774368"
       height="11.265173"
       x="50.807022"
       y="134.29594"
       ry="0" /><rect
       style="fill:#ffffff;fill-opacity:0.397985;stroke:#000000;stroke-width:0.475565"
       id="rect4-8-6-3-8-7"
       width="38.455887"
       height="11.330134"
       x="117.73806"
       y="134.26346"
       ry="0" /><text
       xml:space="preserve"
       style="font-size:3.47734px;line-height:1.25;font-family:sans-serif;stroke-width:0.173867"
       x="17.177118"
       y="141.39828"
       id="text6-7-4-5"
       transform="scale(0.99935882,1.0006416)"><tspan
         sodipodi:role="line"
         id="tspan6-8-0-4"
         style="stroke-width:0.173867"
         x="17.177118"
         y="141.39828">29 Nov 12:30:10</tspan></text><text
       xml:space="preserve"
       style="font-size:3.47734px;line-height:1.25;font-family:sans-serif;stroke-width:0.173867"
       x="75.855385"
       y="141.34912"
       id="text8-8-7-1"
       transform="scale(0.99935882,1.0006416)"><tspan
         sodipodi:role="line"
         style="stroke-width:0.173867"
         x="75.855385"
         y="141.34912"
         id="tspan9-2">Suprised</tspan></text><text
       xml:space="preserve"
       style="font-size:3.47734px;line-height:1.25;font-family:sans-serif;stroke-width:0.173867"
       x="127.42149"
       y="140.84958"
       id="text12-0"
       transform="scale(0.99935882,1.0006416)"><tspan
         sodipodi:role="line"
         id="tspan12-0"
         style="fill:#666666;stroke-width:0.173867"
         x="127.42149"
         y="140.84958">view detail</tspan></text><path
       style="fill:#666666;stroke:#666666;stroke-width:0.269343px;stroke-linecap:butt;stroke-linejoin:miter;stroke-opacity:1"
       d="m 124.68412,141.85312 23.92154,0.0491"
       id="path12-1"
       sodipodi:nodetypes="cc" /><text
       xml:space="preserve"
       style="font-size:2.92166px;line-height:1.25;font-family:sans-serif;stroke-width:0.146083"
       x="184.45476"
       y="112.42454"
       id="text13"
       transform="scale(0.85791275,1.1656197)"><tspan
         sodipodi:role="line"
         id="tspan13"
         style="stroke-width:0.146083"
         x="184.45476"
         y="112.42454">if click, view saved video from security camera installed at home at that time</tspan></text><path
       d="m 181.63628,35.282488 a 6.1549132,6.4551889 0 1 1 0,-12.910375 6.1549132,6.4551889 0 0 1 0,12.910375 z m 0,-1.291045 a 4.9239278,5.164148 0 1 0 0,-10.328285 4.9239278,5.164148 0 0 0 0,10.328285 z m -2.15421,-5.809662 a 0.92323675,0.96827811 0 1 1 0,-1.936556 0.92323675,0.96827811 0 0 1 0,1.936556 z m 4.30845,0 a 0.92323675,0.96827811 0 1 1 0,-1.936556 0.92323675,0.96827811 0 0 1 0,1.936556 z m 1.32945,1.936557 a 3.6929456,3.873111 0 0 1 -6.96736,0 z"
       id="path1-0-5"
       style="fill:#008450;fill-opacity:1;stroke-width:0.630325" /><path
       d="m 181.63694,54.006788 a 6.1549132,6.4551889 0 1 1 0,-12.910374 6.1549132,6.4551889 0 0 1 0,12.910374 z m 0,-1.291045 a 4.9239278,5.164148 0 1 0 0,-10.328285 4.9239278,5.164148 0 0 0 0,10.328285 z m -2.15422,-5.809661 a 0.92323675,0.96827811 0 1 1 0,-1.936556 0.92323675,0.96827811 0 0 1 0,1.936556 z m 4.30845,0 a 0.92323675,0.96827811 0 1 1 0,-1.936556 0.92323675,0.96827811 0 0 1 0,1.936556 z m -4.0007,2.58206 h 3.69295 a 0.61549488,0.64552263 0 0 1 0,1.291045 h -3.69295 a 0.61549488,0.64552263 0 0 1 0,-1.291045 z"
       id="path1-9"
       style="fill:#efb700;fill-opacity:1;stroke-width:0.630325" /><path
       d="m 181.63439,73.71121 a 6.1549132,6.4551889 0 1 1 0,-12.910377 6.1549132,6.4551889 0 0 1 0,12.910377 z m 0,-1.29105 a 4.9239278,5.164148 0 1 0 0,-10.328283 4.9239278,5.164148 0 0 0 0,10.328283 z m -2.15422,-5.809664 a 0.92323761,0.968279 0 1 1 0,-1.936558 0.92323761,0.968279 0 0 1 0,1.936558 z m 4.30845,0 a 0.92323761,0.968279 0 1 1 0,-1.936558 0.92323761,0.968279 0 0 1 0,1.936558 z m 1.32946,3.873108 h -6.96736 a 3.6929456,3.873111 0 0 1 6.96736,0 z"
       id="path1-02-2"
       style="fill:#b81d13;fill-opacity:1;stroke-width:0.630325" /><text
       xml:space="preserve"
       style="font-size:5.29167px;line-height:1.25;font-family:sans-serif;stroke-width:0.264583"
       x="192.11153"
       y="30.041172"
       id="text14"><tspan
         sodipodi:role="line"
         id="tspan14"
         style="stroke-width:0.264583"
         x="192.11153"
         y="30.041172">Joy</tspan></text><text
       xml:space="preserve"
       style="font-size:5.29167px;line-height:1.25;font-family:sans-serif;stroke-width:0.264583"
       x="192.47954"
       y="48.166142"
       id="text15"><tspan
         sodipodi:role="line"
         id="tspan15"
         style="stroke-width:0.264583"
         x="192.47954"
         y="48.166142">Normal</tspan></text><text
       xml:space="preserve"
       style="font-size:5.29167px;line-height:1.25;font-family:sans-serif;stroke-width:0.264583"
       x="192.84758"
       y="66.61338"
       id="text16"><tspan
         sodipodi:role="line"
         style="stroke-width:0.264583"
         x="192.84758"
         y="66.61338"
         id="tspan17">Anger, Disgust, Fear, Sadness, Surprise</tspan><tspan
         sodipodi:role="line"
         style="stroke-width:0.264583"
         x="192.84758"
         y="73.227966"
         id="tspan18">(Show more detailed emotions</tspan><tspan
         sodipodi:role="line"
         style="stroke-width:0.264583"
         x="192.84758"
         y="79.842552"
         id="tspan19">, offer the link of video</tspan><tspan
         sodipodi:role="line"
         style="stroke-width:0.264583"
         x="192.84758"
         y="86.457146"
         id="tspan20">, and Notification to caregiver)</tspan></text></g></svg>
